<svg xmlns="http://www.w3.org/2000/svg" width="256" height="256" viewBox="0 0 256 256">
  <defs>
    <style>
      .\32 6467c0d-0c5f-4e06-a42b-d70836ad82ea {
        fill: #fff;
      }

      .\35 923b9d1-94f3-48f1-80c1-6fd81ac7bc0e, .acad97d8-2774-499b-8f42-c1959313c424 {
        fill: none;
        stroke: #fff;
        stroke-linecap: round;
        stroke-linejoin: round;
      }

      .\35 923b9d1-94f3-48f1-80c1-6fd81ac7bc0e {
        stroke-width: 9.87px;
      }

      .acad97d8-2774-499b-8f42-c1959313c424 {
        stroke-width: 10px;
      }
    </style>
  </defs>
  <title>icon-svg</title>
  <g id="26a218e0-9874-47c1-b411-872ab9b5c274" data-name="burgerList_wline">
    <g>
      <path class="26467c0d-0c5f-4e06-a42b-d70836ad82ea" d="M128.81,9.58A118,118,0,0,1,212.25,211,118,118,0,0,1,45.37,44.14,117.26,117.26,0,0,1,128.81,9.58m0-10a128,128,0,1,0,128,128,128,128,0,0,0-128-128Z"/>
      <line class="5923b9d1-94f3-48f1-80c1-6fd81ac7bc0e" x1="84.88" y1="93.5" x2="209.88" y2="93.5"/>
      <line class="acad97d8-2774-499b-8f42-c1959313c424" x1="47.71" y1="93.5" x2="67.71" y2="93.5"/>
      <line class="5923b9d1-94f3-48f1-80c1-6fd81ac7bc0e" x1="85.69" y1="127.58" x2="210.69" y2="127.58"/>
      <line class="acad97d8-2774-499b-8f42-c1959313c424" x1="48.52" y1="127.58" x2="68.52" y2="127.58"/>
      <line class="5923b9d1-94f3-48f1-80c1-6fd81ac7bc0e" x1="85.69" y1="161.67" x2="210.69" y2="161.67"/>
      <line class="acad97d8-2774-499b-8f42-c1959313c424" x1="48.52" y1="161.67" x2="68.52" y2="161.67"/>
      <g>
        <path class="26467c0d-0c5f-4e06-a42b-d70836ad82ea" d="M127.55,9.58A118,118,0,0,1,211,211,118,118,0,1,1,44.12,44.14,117.24,117.24,0,0,1,127.55,9.58m0-10a128,128,0,1,0,128,128,128,128,0,0,0-128-128Z"/>
        <line class="5923b9d1-94f3-48f1-80c1-6fd81ac7bc0e" x1="84.43" y1="93.5" x2="209.43" y2="93.5"/>
        <line class="acad97d8-2774-499b-8f42-c1959313c424" x1="47.26" y1="93.5" x2="67.26" y2="93.5"/>
        <line class="5923b9d1-94f3-48f1-80c1-6fd81ac7bc0e" x1="84.43" y1="127.58" x2="209.43" y2="127.58"/>
        <line class="acad97d8-2774-499b-8f42-c1959313c424" x1="47.26" y1="127.58" x2="67.26" y2="127.58"/>
        <line class="5923b9d1-94f3-48f1-80c1-6fd81ac7bc0e" x1="84.43" y1="161.67" x2="209.43" y2="161.67"/>
        <line class="acad97d8-2774-499b-8f42-c1959313c424" x1="47.26" y1="161.67" x2="67.26" y2="161.67"/>
      </g>
    </g>
  </g>
</svg>
