<svg id="9ef79261-5386-48ec-b0dc-ec02a75d18c7" data-name="burgerList_white" xmlns="http://www.w3.org/2000/svg" width="256" height="256" viewBox="0 0 256 256">
  <defs>
    <style>
      .e0de78ac-cc9c-4538-8b33-9fdd0d71a27d {
        fill: #fff;
      }
    </style>
  </defs>
  <title>icon-svg</title>
  <path class="e0de78ac-cc9c-4538-8b33-9fdd0d71a27d" d="M128-.42a128,128,0,1,0,128,128A128,128,0,0,0,128-.42ZM67.71,166.67h-20a5,5,0,0,1,0-10h20a5,5,0,1,1,0,10Zm0-34.09h-20a5,5,0,1,1,0-10h20a5,5,0,0,1,0,10Zm0-34.08h-20a5,5,0,0,1,0-10h20a5,5,0,0,1,0,10Zm142.16,68.1h-125a4.94,4.94,0,0,1,0-9.87h125a4.94,4.94,0,1,1,0,9.87Zm0-34.08h-125a4.94,4.94,0,0,1,0-9.87h125a4.94,4.94,0,1,1,0,9.87Zm0-34.09h-125a4.93,4.93,0,0,1,0-9.86h125a4.93,4.93,0,1,1,0,9.86Z"/>
</svg>
