<svg xmlns="http://www.w3.org/2000/svg" width="256" height="256" viewBox="0 0 256 256">
  <defs>
    <style>
      .ac31a43c-af15-4bcd-b1b3-f79e704a6a4f {
        fill: #231815;
      }
    </style>
  </defs>
  <title>icon-svg</title>
  <g id="0551abf7-d289-46dd-b809-e256991cf6e5" data-name="burgerList_black">
    <path class="ac31a43c-af15-4bcd-b1b3-f79e704a6a4f" d="M128-.42a128,128,0,1,0,128,128A128,128,0,0,0,128-.42ZM67.71,166.67h-20a5,5,0,0,1,0-10h20a5,5,0,1,1,0,10Zm0-34.09h-20a5,5,0,1,1,0-10h20a5,5,0,0,1,0,10Zm0-34.08h-20a5,5,0,0,1,0-10h20a5,5,0,0,1,0,10Zm142.16,68.1h-125a4.94,4.94,0,0,1,0-9.87h125a4.94,4.94,0,1,1,0,9.87Zm0-34.08h-125a4.94,4.94,0,0,1,0-9.87h125a4.94,4.94,0,1,1,0,9.87Zm0-34.09h-125a4.93,4.93,0,0,1,0-9.86h125a4.93,4.93,0,1,1,0,9.86Z"/>
  </g>
</svg>
