<?xml version="1.0" encoding="utf-8"?>
<!-- Generator: Adobe Illustrator 22.0.1, SVG Export Plug-In . SVG Version: 6.00 Build 0)  -->
<svg version="1.1" id="bd37dfd2-3804-49bc-9610-1be34a4858a8"
	 xmlns="http://www.w3.org/2000/svg" xmlns:xlink="http://www.w3.org/1999/xlink" x="0px" y="0px" viewBox="0 0 256 256"
	 style="enable-background:new 0 0 256 256;" xml:space="preserve">
<title>ziv icon</title>
<g>
	<path d="M1.9,65.6v-4.9h27L7.5,106.9h20.3v5H-0.3l21.5-46.3H1.9z"/>
	<path d="M37.4,60.8h5.2v51.1h-5.2V60.8z"/>
	<path d="M50.3,60.8h5.6l16.9,39.5L90,60.8h5.6l-22.3,51.1h-1.2L50.3,60.8z"/>
	<path d="M128.5,59.4c7.2-0.1,14.3,2.5,19.5,7.7c10.5,10.6,10.5,27.6,0,38.2c-10.6,10.5-27.6,10.5-38.2,0c-5.2-4.9-8-11.8-7.8-18.9
		c0-4.7,1.2-9.4,3.5-13.7C110.1,64.4,118.9,59.3,128.5,59.4L128.5,59.4z M128.8,64.4c-7.7,0-14.9,4.3-18.7,10.9
		c-1.9,3.4-2.9,7.2-2.8,11.2c-0.1,11.9,9.4,21.5,21.4,21.7h0.1c3.8,0,7.7-1,11.1-2.9c3.2-1.9,6-4.6,8-8c1.9-3.4,2.9-7.2,2.8-11.2
		c0-3.8-0.9-7.7-2.8-11.1c-1.9-3.2-4.7-6-8-7.8C136.3,65.3,132.6,64.3,128.8,64.4L128.8,64.4z"/>
	<path d="M187.8,76.7h-4.9c0-4.6,1.8-9.1,5-12.4c3.1-3.2,7.5-5,11.9-4.9c8.4-0.3,15.5,6.3,15.8,14.7c0,0.1,0,0.4,0,0.6
		c0,2.8-0.7,5.6-2.1,8.1c-2.4,3.7-5,7.2-8.1,10.3l-12.7,13.7h23.6v4.9h-34.6l19.6-21.1c2.9-2.9,5.5-6,7.8-9.4
		c1.2-1.9,1.8-4.3,1.8-6.5c0-2.8-1.2-5.5-3.2-7.4c-4.6-4.3-11.6-4.1-16.1,0.1C189.1,70,187.9,73.3,187.8,76.7z"/>
	<path d="M228.4,72.6h-5.2c0.7-3.8,2.7-7.2,5.5-9.7c2.7-2.2,6-3.5,9.6-3.4c2.7,0,5.2,0.6,7.4,1.8c2.2,1.2,4.1,2.8,5.3,4.9
		c1.2,1.9,1.9,4.1,1.9,6.5c0,4.4-2.2,7.8-6.5,10.5c2.4,0.9,4.4,2.5,6,4.4c2.2,2.5,3.4,5.7,3.4,9.1c0,2.9-0.7,5.7-2.4,8.3
		c-1.5,2.5-3.7,4.7-6.2,6c-2.7,1.5-5.7,2.2-8.8,2.2c-4,0.1-8-1.2-11.1-3.8c-3.1-2.9-5.2-6.9-5.7-11.2h5c0.6,2.7,1.9,5.2,3.8,7.2
		c2.2,1.9,5.2,2.9,8.1,2.8c3.2,0.1,6.5-1,9-3.4c2.2-2.1,3.4-4.9,3.4-7.8c0-1.9-0.6-4-1.6-5.6c-1-1.8-2.7-3.1-4.6-4
		c-2.8-1-5.7-1.6-8.8-1.6V81c2.2,0,4.4-0.4,6.3-1.2c1.6-0.6,3.1-1.8,4.1-3.1c0.9-1.2,1.3-2.7,1.3-4.1c0-2.2-1-4.3-2.7-5.7
		c-1.8-1.6-4.3-2.5-6.8-2.5c-2.1,0-4.1,0.6-5.7,1.9C230.5,68,229.2,70,228.4,72.6z"/>
	<path d="M0.3,197.2v-51.1h10.6c7.7,0,13.1,0.6,16.7,1.9c4.9,1.6,8.8,4.9,11.6,9c2.9,4.6,4.3,9.9,4.1,15.3c0.1,4.7-1,9.4-3.4,13.6
		c-1.9,3.7-5,6.6-8.5,8.5c-3.5,1.9-8.5,2.8-14.9,2.8H0.3z M5.2,192.4H11c7.1,0,11.9-0.4,14.7-1.3c3.7-1.2,6.9-3.5,9.1-6.8
		c2.2-3.5,3.4-7.7,3.2-11.9c0.1-4.4-1.2-8.8-3.5-12.7c-2.4-3.5-5.9-6-10-7.2c-3.2-1-8.4-1.5-15.8-1.5H5.2
		C5.2,151,5.2,192.4,5.2,192.4z"/>
	<path d="M55.4,146.1h29.3v5H60.6v16.1h24v5h-24v20h24v5H55.4V146.1z"/>
	<path d="M90.3,187.7l4.4-2.7c3.1,5.6,6.6,8.4,10.6,8.4c1.6,0,3.4-0.4,4.9-1.2c1.5-0.7,2.7-1.8,3.4-3.2c0.7-1.3,1.2-2.8,1.2-4.3
		c0-1.8-0.6-3.5-1.8-5c-2.5-3.1-5.5-5.9-8.8-8.3c-2.9-2.1-5.6-4.3-8-6.9c-1.8-2.2-2.7-5-2.7-7.8c0-2.1,0.6-4.3,1.6-6
		c1-1.8,2.5-3.4,4.4-4.3c1.9-1,4.1-1.6,6.3-1.6c2.4,0,4.7,0.6,6.8,1.8c2.7,1.8,4.9,4,6.6,6.6l-4.1,3.1c-1.3-1.9-2.9-3.7-4.9-5
		c-1.3-0.7-2.8-1.2-4.4-1.2c-1.9-0.1-3.7,0.6-5,1.9c-1.3,1.2-2.1,2.9-1.9,4.6c0,1.2,0.3,2.2,0.7,3.2c0.6,1.3,1.5,2.4,2.5,3.4
		c0.7,0.6,2.9,2.4,6.6,5.2c3.5,2.4,6.6,5.3,9.1,8.7c1.6,2.2,2.4,4.9,2.5,7.7c0,3.7-1.5,7.2-4.3,9.7c-2.8,2.7-6.5,4.1-10.3,4.1
		c-2.9,0-5.9-0.9-8.4-2.5C94.3,193.9,92,190.9,90.3,187.7z"/>
	<path d="M132.5,146.1h5.2v51.1h-5.2V146.1z"/>
	<path d="M200.7,154.6l-4,3.8c-2.7-2.7-5.9-4.9-9.4-6.3c-3.1-1.3-6.5-2.1-9.9-2.2c-4,0-8,1-11.5,2.9c-3.5,1.9-6.5,4.6-8.4,8
		c-1.9,3.2-2.9,6.9-2.9,10.8s1,7.7,3.1,10.9c2.1,3.4,5,6.3,8.5,8.1c3.7,1.9,7.8,2.9,11.9,2.9c4.9,0.1,9.6-1.5,13.4-4.4
		c3.5-2.8,5.9-6.9,6.5-11.5h-16.4v-5h22c0,7.8-2.4,14.1-7.1,18.9c-4.7,4.7-10.9,6.9-18.6,6.9c-9.4,0-16.9-3.2-22.4-9.7
		c-4.1-4.7-6.5-10.9-6.3-17.2c0-4.7,1.2-9.4,3.7-13.6c2.4-4.1,5.9-7.5,10-9.7c4.4-2.4,9.4-3.7,14.4-3.5c4.1,0,8.4,0.7,12.2,2.4
		C193.8,148.9,197.5,151.6,200.7,154.6z"/>
	<path d="M215.8,197.2v-51.1h1.2l34,39.2v-39.2h5v51.1h-1.2l-33.9-38.8v38.8H215.8z"/>
</g>
</svg>
