<?xml version="1.0" encoding="utf-8"?>
<!-- Generator: Adobe Illustrator 22.0.1, SVG Export Plug-In . SVG Version: 6.00 Build 0)  -->
<svg version="1.1" id="_x36_b9435dd-3886-4b17-8e0f-ab0951dc0dc3"
	 xmlns="http://www.w3.org/2000/svg" xmlns:xlink="http://www.w3.org/1999/xlink" x="0px" y="0px" viewBox="0 0 256 256"
	 style="enable-background:new 0 0 256 256;" xml:space="preserve">
<style type="text/css">
	.st0{fill:#FFFFFF;}
</style>
<title>ziv_icon</title>
<g>
	<path class="st0" d="M1.9,65.6v-4.9h27L7.5,106.8h20.3v5H-0.4l21.6-46.2H1.9z"/>
	<path class="st0" d="M37.3,60.7h5.1v51.2h-5.1V60.7z"/>
	<path class="st0" d="M50.3,60.7h5.5l17,39.5L90,60.7h5.6l-22.3,51.2h-1.1L50.3,60.7z"/>
	<path class="st0" d="M128.6,59.4c7.3-0.2,14.3,2.6,19.5,7.7c10.4,10.7,10.1,27.8-0.7,38.2c-10.5,10.1-27.1,10.1-37.6-0.1
		c-5.1-4.9-7.9-11.8-7.8-18.9c0-4.8,1.2-9.5,3.6-13.7C110.2,64.4,119,59.3,128.6,59.4L128.6,59.4z M128.8,64.3
		c-7.7,0.1-14.9,4.2-18.7,10.9c-1.9,3.4-2.9,7.3-2.9,11.2c-0.1,11.9,9.5,21.6,21.4,21.7c0,0,0,0,0,0h0.2c3.9,0,7.7-1,11-3
		c3.3-1.9,6.1-4.6,7.9-7.9c1.9-3.4,2.9-7.2,2.8-11.1c0.1-3.9-0.9-7.7-2.8-11c-1.9-3.3-4.7-6-8-7.9C136.4,65.3,132.6,64.3,128.8,64.3
		z"/>
	<path class="st0" d="M187.8,76.6h-4.9c0-4.6,1.8-9.1,5.1-12.4c3.2-3.2,7.5-5,12-4.9c8.4-0.3,15.5,6.3,15.8,14.7c0,0,0,0,0,0
		c0,0.2,0,0.4,0,0.6c0,2.8-0.7,5.6-2.1,8.1c-2.3,3.7-5,7.2-8.1,10.3l-12.7,13.7h23.6v4.9h-34.7l19.5-21.2c2.9-2.9,5.5-6.1,7.7-9.5
		c1.2-2,1.8-4.2,1.8-6.5c0-2.8-1.2-5.5-3.2-7.4c-4.5-4.2-11.6-4.2-16,0.1C189.2,70,187.9,73.3,187.8,76.6z"/>
	<path class="st0" d="M228.5,72.5h-5.2c0.7-3.8,2.6-7.2,5.5-9.7c2.7-2.3,6-3.5,9.5-3.4c2.6,0,5.1,0.6,7.4,1.8
		c2.2,1.1,4.1,2.8,5.4,4.9c1.2,1.9,1.9,4.2,1.9,6.5c0,4.4-2.2,7.9-6.6,10.5c2.4,0.9,4.4,2.5,6,4.4c2.2,2.5,3.3,5.8,3.3,9.1
		c0,2.9-0.8,5.8-2.3,8.3c-1.5,2.6-3.6,4.7-6.3,6.1c-2.7,1.5-5.8,2.2-8.9,2.2c-4,0.1-8-1.2-11-3.8c-3.2-2.9-5.2-6.9-5.8-11.2h5
		c0.6,2.7,1.9,5.2,3.8,7.2c2.2,1.9,5.1,2.9,8.1,2.8c3.3,0.2,6.5-1,9-3.3c2.2-2,3.4-4.9,3.4-7.8c0-2-0.6-3.9-1.7-5.6
		c-1.1-1.7-2.7-3.1-4.5-3.9c-2.8-1.1-5.8-1.6-8.8-1.7v-4.7c2.2,0,4.4-0.4,6.4-1.2c1.7-0.6,3.1-1.7,4.2-3.2c0.9-1.2,1.3-2.7,1.3-4.2
		c0-2.2-1-4.3-2.7-5.8c-1.8-1.7-4.3-2.5-6.7-2.4c-2.1,0-4.1,0.6-5.7,1.9C230.7,67.9,229.3,70.1,228.5,72.5z"/>
	<path class="st0" d="M0.2,197.3v-51.2h10.6c7.6,0,13.2,0.6,16.7,1.8c4.8,1.6,8.9,4.8,11.6,9.1c2.9,4.6,4.3,9.9,4.2,15.3
		c0.1,4.7-1,9.4-3.3,13.5c-2,3.7-5,6.7-8.6,8.6c-3.5,1.9-8.5,2.8-14.9,2.8L0.2,197.3z M5.1,192.5H11c7.1,0,12-0.4,14.8-1.3
		c3.7-1.2,6.9-3.5,9.1-6.8c2.3-3.6,3.4-7.7,3.3-11.9c0.1-4.5-1.1-8.9-3.6-12.6c-2.4-3.5-5.9-6-10-7.2c-3.2-1-8.5-1.5-15.8-1.5H5.1
		V192.5z"/>
	<path class="st0" d="M55.4,146.1h29.3v5H60.5v16h24v5h-24v20.1h24v5H55.4V146.1z"/>
	<path class="st0" d="M90.4,187.8l4.4-2.6c3.1,5.6,6.6,8.5,10.6,8.5c1.7,0,3.4-0.4,4.8-1.2c1.4-0.7,2.6-1.8,3.4-3.2
		c0.8-1.3,1.2-2.8,1.2-4.3c0-1.8-0.6-3.6-1.7-5c-2.5-3.2-5.5-5.9-8.9-8.2c-2.9-2-5.6-4.4-8-7c-1.8-2.2-2.7-5-2.7-7.8
		c0-2.1,0.5-4.2,1.6-6.1c1-1.8,2.6-3.3,4.4-4.3c1.9-1.1,4.1-1.6,6.3-1.6c2.4,0,4.7,0.6,6.8,1.8c2.6,1.7,4.9,4,6.7,6.6l-4.2,3.2
		c-1.3-2-3-3.7-4.9-5c-1.3-0.8-2.9-1.2-4.4-1.2c-1.9-0.1-3.7,0.6-5.1,1.9c-1.3,1.2-2,2.9-2,4.6c0,1.1,0.2,2.2,0.7,3.2
		c0.6,1.3,1.5,2.4,2.5,3.4c0.7,0.6,2.9,2.4,6.6,5.1c3.5,2.4,6.6,5.3,9.1,8.7c1.6,2.3,2.4,4.9,2.5,7.7c0,3.7-1.5,7.2-4.2,9.7
		c-2.7,2.7-6.5,4.2-10.3,4.1c-3,0-5.9-0.8-8.5-2.5C94.3,193.9,92,191.1,90.4,187.8z"/>
	<path class="st0" d="M132.5,146.1h5.1v51.2h-5.1V146.1z"/>
	<path class="st0" d="M200.9,154.7l-4,3.8c-2.7-2.7-5.9-4.9-9.4-6.4c-3.1-1.4-6.5-2.1-9.9-2.2c-4,0-8,1-11.5,3
		c-3.5,1.8-6.4,4.6-8.4,8c-1.9,3.2-3,6.9-3,10.7c0,3.9,1.1,7.7,3.1,11c2.1,3.5,5,6.3,8.6,8.2c3.7,2,7.8,3,12,3
		c4.8,0.2,9.6-1.4,13.4-4.4c3.6-2.9,5.9-7,6.5-11.5h-16.4v-4.9h22.1c0,7.9-2.3,14.1-7,18.8c-4.7,4.7-10.9,7-18.6,6.9
		c-9.5,0-17-3.2-22.5-9.7c-4.2-4.8-6.4-10.9-6.4-17.2c0-4.8,1.2-9.4,3.7-13.5c2.4-4.1,5.8-7.5,10-9.8c4.4-2.4,9.4-3.6,14.4-3.5
		c4.2,0,8.4,0.8,12.2,2.4C193.9,149,197.6,151.6,200.9,154.7z"/>
	<path class="st0" d="M215.8,197.3v-51.2h1.1l34.1,39.2v-39.2h5v51.2h-1.1L221,158.5v38.7L215.8,197.3z"/>
</g>
</svg>
